<?xml version="1.0" standalone="no"?>
<!DOCTYPE svg PUBLIC "-//W3C//DTD SVG 20010904//EN"
 "http://www.w3.org/TR/2001/REC-SVG-20010904/DTD/svg10.dtd">
<svg version="1.0" xmlns="http://www.w3.org/2000/svg"
 width="1000.000000pt" height="354.000000pt" viewBox="0 0 1000.000000 354.000000"
 preserveAspectRatio="xMidYMid meet">
<metadata>
Created by potrace 1.16, written by Peter Selinger 2001-2019
</metadata>
<g transform="translate(0.000000,354.000000) scale(0.100000,-0.100000)"
fill="#000000" stroke="none">
<path d="M2473 1880 c-98 -21 -185 -78 -219 -143 -8 -15 -18 -47 -23 -72 l-8
-45 112 0 113 0 7 30 c4 16 20 41 37 55 24 20 40 25 88 25 33 0 70 -5 83 -11
45 -20 62 -92 29 -122 -19 -18 -63 -28 -215 -52 -200 -31 -277 -98 -277 -240
0 -136 88 -220 242 -232 86 -6 183 15 240 52 l37 24 6 -29 7 -30 115 0 c115 0
115 0 107 23 -4 12 -10 155 -13 317 -6 318 -6 316 -64 378 -48 50 -123 74
-252 78 -60 2 -129 -1 -152 -6z m237 -472 c0 -65 -16 -111 -50 -143 -27 -26
-39 -30 -105 -33 -68 -4 -76 -2 -99 21 -36 37 -35 89 2 127 22 22 44 30 102
40 41 6 89 15 105 20 17 4 33 9 38 9 4 1 7 -18 7 -41z"/>
<path d="M3285 1873 c-143 -52 -225 -186 -225 -370 1 -140 29 -228 98 -299
104 -108 310 -122 419 -29 l38 32 -3 -69 c-4 -117 -46 -169 -140 -176 -77 -5
-126 15 -149 62 l-17 36 -113 0 c-62 0 -113 -4 -113 -8 0 -41 35 -113 72 -149
145 -142 462 -134 599 14 76 82 74 68 77 536 l3 418 -108 -3 -108 -3 -5 -34
-5 -33 -20 22 c-57 63 -200 88 -300 53z m253 -184 c12 -8 34 -36 47 -63 20
-40 25 -65 25 -126 0 -134 -60 -210 -164 -210 -77 0 -124 39 -148 120 -29 102
-2 237 56 275 52 34 133 36 184 4z"/>
<path d="M4218 1871 c-74 -24 -116 -51 -168 -107 -68 -74 -94 -141 -98 -261
-4 -84 0 -114 17 -170 47 -153 167 -246 333 -260 166 -14 310 55 373 177 47
94 50 90 -62 90 -98 0 -99 0 -121 -30 -32 -43 -78 -63 -142 -63 -100 0 -155
45 -173 141 l-6 32 274 0 275 0 0 68 c0 171 -80 307 -218 369 -75 35 -203 41
-284 14z m203 -177 c25 -12 69 -85 69 -112 0 -9 -43 -12 -159 -12 l-160 0 9
30 c29 100 141 144 241 94z"/>
<path d="M5180 1875 c-25 -8 -65 -31 -88 -50 l-42 -37 0 41 0 41 -110 0 -110
0 0 -390 0 -390 115 0 114 0 3 258 c3 278 6 295 59 335 15 10 47 22 73 24 l46
6 0 88 c0 49 -3 89 -7 88 -5 0 -28 -7 -53 -14z"/>
</g>
</svg>
